<svg width="36" height="36" viewBox="0 0 36 36" fill="none" xmlns="http://www.w3.org/2000/svg">
<path d="M21.4245 5.2515L9.76501 17.2125C9.56023 17.4226 9.44562 17.7044 9.44562 17.9977C9.44562 18.2911 9.56023 18.5729 9.76501 18.783L21.4245 30.7485C21.5199 30.8465 21.634 30.9243 21.7599 30.9775C21.8859 31.0307 22.0213 31.0581 22.158 31.0581C22.2947 31.0581 22.4301 31.0307 22.5561 30.9775C22.6821 30.9243 22.7961 30.8465 22.8915 30.7485C23.0878 30.5476 23.1976 30.2779 23.1976 29.997C23.1976 29.7161 23.0878 29.4464 22.8915 29.2455L11.9273 17.9977L22.8915 6.75225C23.0871 6.55143 23.1965 6.28219 23.1965 6.00187C23.1965 5.72156 23.0871 5.45232 22.8915 5.2515C22.7961 5.15353 22.6821 5.07566 22.5561 5.02249C22.4301 4.96932 22.2947 4.94192 22.158 4.94192C22.0213 4.94192 21.8859 4.96932 21.7599 5.02249C21.634 5.07566 21.5199 5.15353 21.4245 5.2515V5.2515Z" fill="#233059"/>
</svg>
