<svg width="36" height="36" viewBox="0 0 36 36" fill="none" xmlns="http://www.w3.org/2000/svg">
<path d="M14.5755 30.7485L26.235 18.7875C26.4398 18.5774 26.5544 18.2956 26.5544 18.0023C26.5544 17.7089 26.4398 17.4271 26.235 17.217L14.5755 5.25151C14.4801 5.15353 14.366 5.07566 14.2401 5.02249C14.1141 4.96932 13.9787 4.94193 13.842 4.94193C13.7053 4.94193 13.5699 4.96932 13.4439 5.02249C13.3179 5.07566 13.2039 5.15353 13.1085 5.25151C12.9122 5.45243 12.8024 5.72215 12.8024 6.00301C12.8024 6.28387 12.9122 6.55359 13.1085 6.75451L24.0727 18.0023L13.1085 29.2478C12.9129 29.4486 12.8035 29.7178 12.8035 29.9981C12.8035 30.2784 12.9129 30.5477 13.1085 30.7485C13.2039 30.8465 13.3179 30.9243 13.4439 30.9775C13.5699 31.0307 13.7053 31.0581 13.842 31.0581C13.9787 31.0581 14.1141 31.0307 14.2401 30.9775C14.366 30.9243 14.4801 30.8465 14.5755 30.7485V30.7485Z" fill="#233059"/>
</svg>
